<svg xmlns="http://www.w3.org/2000/svg" width="24" height="18.286" viewBox="0 0 24 18.286">
  <path id="bars-icon" d="M.857,7.577H23.143A.807.807,0,0,0,24,6.831V4.965a.807.807,0,0,0-.857-.746H.857A.807.807,0,0,0,0,4.965V6.831A.807.807,0,0,0,.857,7.577Zm0,7.464H23.143A.807.807,0,0,0,24,14.295V12.429a.807.807,0,0,0-.857-.746H.857A.807.807,0,0,0,0,12.429v1.866A.807.807,0,0,0,.857,15.041Zm0,7.464H23.143A.807.807,0,0,0,24,21.758V19.892a.807.807,0,0,0-.857-.746H.857A.807.807,0,0,0,0,19.892v1.866A.807.807,0,0,0,.857,22.5Z" transform="translate(0 -4.219)" fill="#fff"/>
</svg>
