<svg id="logo-icon" xmlns="http://www.w3.org/2000/svg" width="30" height="30" viewBox="0 0 30 30">
  <path id="base" d="M9.375,30,0,20.625V9.375L9.375,0h11.25L30,9.375v11.25L20.625,30Z" fill="#9346f9"/>
  <path id="s" d="M556.607-665.872h0L551-671.422l2.744-2.716,5.607,5.55,2.743-2.716,2.743,2.716-2.743,2.716h0l-2.744,2.715Zm-5.412-18.016,2.744-2.715,14.482,14.336-2.743,2.716Zm9.07-3.68-2.743,2.716-2.744-2.715,2.744-2.716h0L560.265-693l8.35,8.266-1.185,1.173-1.558,1.543Z" transform="translate(-544.807 693.078)" fill="#fff"/>
</svg>
