<svg xmlns="http://www.w3.org/2000/svg" width="24" height="19.774" viewBox="0 0 24 19.774">
  <path id="twitter-icon" d="M21.533,8.309c.015.216.015.433.015.649,0,6.6-4.949,14.2-13.995,14.2A13.757,13.757,0,0,1,0,20.915a10.033,10.033,0,0,0,1.188.062,9.762,9.762,0,0,0,6.107-2.132,4.937,4.937,0,0,1-4.6-3.46,6.117,6.117,0,0,0,.929.077,5.133,5.133,0,0,0,1.294-.17,4.973,4.973,0,0,1-3.944-4.9v-.062a4.9,4.9,0,0,0,2.223.633A5.045,5.045,0,0,1,1.675,4.292,13.917,13.917,0,0,0,11.817,9.514,5.711,5.711,0,0,1,11.7,8.371a4.953,4.953,0,0,1,4.919-4.99,4.875,4.875,0,0,1,3.594,1.576,9.6,9.6,0,0,0,3.122-1.2A4.964,4.964,0,0,1,21.168,6.5,9.75,9.75,0,0,0,24,5.729a10.658,10.658,0,0,1-2.467,2.58Z" transform="translate(0 -3.381)" fill="#fff"/>
</svg>
