<svg xmlns="http://www.w3.org/2000/svg" width="24" height="16.875" viewBox="0 0 24 16.875">
  <path id="youtube-icon" d="M24.548,7.14A3.016,3.016,0,0,0,22.427,5c-1.872-.5-9.377-.5-9.377-.5s-7.5,0-9.377.5A3.016,3.016,0,0,0,1.551,7.14a31.635,31.635,0,0,0-.5,5.814,31.635,31.635,0,0,0,.5,5.814,2.971,2.971,0,0,0,2.122,2.1c1.872.5,9.377.5,9.377.5s7.5,0,9.377-.5a2.971,2.971,0,0,0,2.122-2.1,31.635,31.635,0,0,0,.5-5.814,31.635,31.635,0,0,0-.5-5.814ZM10.6,16.523V9.386l6.273,3.569L10.6,16.523Z" transform="translate(-1.05 -4.5)" fill="#fff"/>
</svg>
